# xmcd CD database file
#
# Track frame offsets:
#	150
#	26417
#	58707
#	71297
#	94220
#	118302
#	151272
#	183902
#	209307
#	235725
#
# Disc length: 3320 seconds
#
# Revision: 30
# Processed by: cddbd v1.5.2PL0 Copyright (c) Steve Scherf et al.
# Submitted via: CDex 1.99.1
#
DISCID=800cf60a
DTITLE=Keith Jarrett - The Melody At Night, With You
DYEAR=1999
DGENRE=Jazz
TTITLE0=I Loves You Porgy
TTITLE1=I Got It Bad And That Ain't Good
TTITLE2=Don't Ever Leave Me
TTITLE3=Someone To Watch Over Me
TTITLE4=My Wild Irish Rose
TTITLE5=Blame It On My Youth - Meditation
TTITLE6=Something To Remember You By
TTITLE7=Be My Love
TTITLE8=Shenandoah
TTITLE9=I'm Through With Love
EXTD=YEAR: 1999
EXTT0=
EXTT1=
EXTT2=
EXTT3=
EXTT4=
EXTT5=
EXTT6=
EXTT7=
EXTT8=
EXTT9=
PLAYORDER=
